<svg width="254" height="95" viewBox="0 0 254 95" fill="none" xmlns="http://www.w3.org/2000/svg">
<path d="M42.864 25.728V20.64H51.728V44H46.032V25.728H42.864ZM70.3833 24.736L62.3513 44H56.7513L64.8793 25.344H54.9273V20.672H70.3833V24.736ZM72.0203 25.728V20.64H80.8843V44H75.1883V25.728H72.0203ZM90.5155 37.152C90.8355 38.8373 91.8168 39.68 93.4595 39.68C94.5902 39.68 95.3902 39.1787 95.8595 38.176C96.3288 37.1733 96.5635 35.5413 96.5635 33.28C96.0942 33.9413 95.4542 34.4533 94.6435 34.816C93.8328 35.1787 92.9262 35.36 91.9235 35.36C90.5582 35.36 89.3422 35.0827 88.2755 34.528C87.2088 33.952 86.3662 33.1093 85.7475 32C85.1502 30.8693 84.8515 29.504 84.8515 27.904C84.8515 26.3253 85.1715 24.9493 85.8115 23.776C86.4728 22.6027 87.4008 21.696 88.5955 21.056C89.8115 20.416 91.2408 20.096 92.8835 20.096C96.0408 20.096 98.2488 21.0773 99.5075 23.04C100.766 25.0027 101.396 27.8933 101.396 31.712C101.396 34.4853 101.14 36.7787 100.628 38.592C100.137 40.384 99.2942 41.7493 98.0995 42.688C96.9262 43.6267 95.3155 44.096 93.2675 44.096C91.6462 44.096 90.2595 43.776 89.1075 43.136C87.9768 42.496 87.1022 41.6533 86.4835 40.608C85.8862 39.5627 85.5448 38.4107 85.4595 37.152H90.5155ZM93.1715 31.04C94.0675 31.04 94.7822 30.7733 95.3155 30.24C95.8488 29.6853 96.1155 28.9387 96.1155 28C96.1155 26.976 95.8382 26.1867 95.2835 25.632C94.7288 25.0773 93.9822 24.8 93.0435 24.8C92.1048 24.8 91.3582 25.088 90.8035 25.664C90.2702 26.2187 90.0035 26.9867 90.0035 27.968C90.0035 28.8853 90.2702 29.632 90.8035 30.208C91.3582 30.7627 92.1475 31.04 93.1715 31.04Z" fill="white"/>
<path d="M2.5 92V17.9782L27.5 4.22818V52V92H2.5Z" stroke="white" stroke-width="5"/>
<path d="M58.608 59.536V63.92H49.456V68.656H56.304V72.912H49.456V82H43.984V59.536H58.608ZM64.236 62.288C63.276 62.288 62.4867 62.0107 61.868 61.456C61.2707 60.88 60.972 60.176 60.972 59.344C60.972 58.4907 61.2707 57.7867 61.868 57.232C62.4867 56.656 63.276 56.368 64.236 56.368C65.1747 56.368 65.9427 56.656 66.54 57.232C67.1587 57.7867 67.468 58.4907 67.468 59.344C67.468 60.176 67.1587 60.88 66.54 61.456C65.9427 62.0107 65.1747 62.288 64.236 62.288ZM66.956 64.144V82H61.484V64.144H66.956ZM76.3935 58.32V82H70.9215V58.32H76.3935ZM103.143 63.952C105.362 63.952 107.122 64.624 108.423 65.968C109.746 67.312 110.407 69.1787 110.407 71.568V82H104.967V72.304C104.967 71.152 104.658 70.2667 104.039 69.648C103.442 69.008 102.61 68.688 101.543 68.688C100.476 68.688 99.6337 69.008 99.015 69.648C98.4177 70.2667 98.119 71.152 98.119 72.304V82H92.679V72.304C92.679 71.152 92.3697 70.2667 91.751 69.648C91.1537 69.008 90.3217 68.688 89.255 68.688C88.1883 68.688 87.3457 69.008 86.727 69.648C86.1297 70.2667 85.831 71.152 85.831 72.304V82H80.359V64.144H85.831V66.384C86.3857 65.6373 87.111 65.0507 88.007 64.624C88.903 64.176 89.9163 63.952 91.047 63.952C92.391 63.952 93.5857 64.24 94.631 64.816C95.6977 65.392 96.5297 66.2133 97.127 67.28C97.7457 66.2987 98.5883 65.4987 99.655 64.88C100.722 64.2613 101.884 63.952 103.143 63.952ZM135.639 59.536V63.92H126.487V68.656H133.335V72.912H126.487V82H121.015V59.536H135.639ZM137.427 73.04C137.427 71.2053 137.769 69.5947 138.451 68.208C139.155 66.8213 140.105 65.7547 141.299 65.008C142.494 64.2613 143.827 63.888 145.299 63.888C146.558 63.888 147.657 64.144 148.595 64.656C149.555 65.168 150.291 65.84 150.803 66.672V64.144H156.275V82H150.803V79.472C150.27 80.304 149.523 80.976 148.563 81.488C147.625 82 146.526 82.256 145.267 82.256C143.817 82.256 142.494 81.8827 141.299 81.136C140.105 80.368 139.155 79.2907 138.451 77.904C137.769 76.496 137.427 74.8747 137.427 73.04ZM150.803 73.072C150.803 71.7067 150.419 70.6293 149.651 69.84C148.905 69.0507 147.987 68.656 146.899 68.656C145.811 68.656 144.883 69.0507 144.115 69.84C143.369 70.608 142.995 71.6747 142.995 73.04C142.995 74.4053 143.369 75.4933 144.115 76.304C144.883 77.0933 145.811 77.488 146.899 77.488C147.987 77.488 148.905 77.0933 149.651 76.304C150.419 75.5147 150.803 74.4373 150.803 73.072ZM159.146 73.072C159.146 71.216 159.519 69.5947 160.266 68.208C161.034 66.8213 162.09 65.7547 163.434 65.008C164.799 64.2613 166.357 63.888 168.106 63.888C170.346 63.888 172.213 64.4747 173.706 65.648C175.221 66.8213 176.213 68.4747 176.682 70.608H170.858C170.367 69.2427 169.418 68.56 168.01 68.56C167.007 68.56 166.207 68.9547 165.61 69.744C165.013 70.512 164.714 71.6213 164.714 73.072C164.714 74.5227 165.013 75.6427 165.61 76.432C166.207 77.2 167.007 77.584 168.01 77.584C169.418 77.584 170.367 76.9013 170.858 75.536H176.682C176.213 77.6267 175.221 79.2693 173.706 80.464C172.191 81.6587 170.325 82.256 168.106 82.256C166.357 82.256 164.799 81.8827 163.434 81.136C162.09 80.3893 161.034 79.3227 160.266 77.936C159.519 76.5493 159.146 74.928 159.146 73.072ZM189.561 77.36V82H186.777C184.793 82 183.246 81.52 182.137 80.56C181.028 79.5787 180.473 77.9893 180.473 75.792V68.688H178.297V64.144H180.473V59.792H185.945V64.144H189.529V68.688H185.945V75.856C185.945 76.3893 186.073 76.7733 186.329 77.008C186.585 77.2427 187.012 77.36 187.609 77.36H189.561ZM200.737 82.256C198.988 82.256 197.409 81.8827 196.001 81.136C194.614 80.3893 193.516 79.3227 192.705 77.936C191.916 76.5493 191.521 74.928 191.521 73.072C191.521 71.2373 191.926 69.6267 192.737 68.24C193.548 66.832 194.657 65.7547 196.065 65.008C197.473 64.2613 199.052 63.888 200.801 63.888C202.55 63.888 204.129 64.2613 205.537 65.008C206.945 65.7547 208.054 66.832 208.865 68.24C209.676 69.6267 210.081 71.2373 210.081 73.072C210.081 74.9067 209.665 76.528 208.833 77.936C208.022 79.3227 206.902 80.3893 205.473 81.136C204.065 81.8827 202.486 82.256 200.737 82.256ZM200.737 77.52C201.782 77.52 202.668 77.136 203.393 76.368C204.14 75.6 204.513 74.5013 204.513 73.072C204.513 71.6427 204.15 70.544 203.425 69.776C202.721 69.008 201.846 68.624 200.801 68.624C199.734 68.624 198.849 69.008 198.145 69.776C197.441 70.5227 197.089 71.6213 197.089 73.072C197.089 74.5013 197.43 75.6 198.113 76.368C198.817 77.136 199.692 77.52 200.737 77.52ZM218.456 67.12C219.096 66.1387 219.896 65.3707 220.856 64.816C221.816 64.24 222.883 63.952 224.056 63.952V69.744H222.552C221.187 69.744 220.163 70.0427 219.48 70.64C218.797 71.216 218.456 72.24 218.456 73.712V82H212.984V64.144H218.456V67.12ZM244.912 64.144L233.712 90.48H227.824L231.92 81.392L224.655 64.144H230.768L234.896 75.312L238.992 64.144H244.912ZM249.45 82.256C248.49 82.256 247.701 81.9787 247.082 81.424C246.485 80.848 246.186 80.144 246.186 79.312C246.186 78.4587 246.485 77.744 247.082 77.168C247.701 76.592 248.49 76.304 249.45 76.304C250.389 76.304 251.157 76.592 251.754 77.168C252.373 77.744 252.682 78.4587 252.682 79.312C252.682 80.144 252.373 80.848 251.754 81.424C251.157 81.9787 250.389 82.256 249.45 82.256Z" fill="white"/>
</svg>
